<svg id="Camada_1" data-name="Camada 1" xmlns="http://www.w3.org/2000/svg" viewBox="0 0 400.36 392.36"><defs><style>.cls-1{fill:#223c90;}.cls-2{fill:#fff;}</style></defs><title>favicon-david</title><ellipse class="cls-1" cx="200.18" cy="196.18" rx="200.18" ry="196.18"/><path class="cls-2" d="M-866.48,582c0-1,0-1.92-.1-3.71a2.81,2.81,0,0,0-.27-1.19,3.06,3.06,0,0,0-1.28-1.3c-1.78-1-4.66-.78-8.23-1.31-2.17-.32-2.67-.64-3-.87-1-.8-1.35-1.94-1.94-4.17s-.89-3.34-.43-4.39c.12-.27.51-1.06,3.25-2.44s4.74-1.86,6.84-3.35a2.93,2.93,0,0,0,1.4-1.91,3.3,3.3,0,0,0-.2-1.09,19.84,19.84,0,0,0-.86-2.31c-.23-.55-.18-.53-.72-2.22-1.1-3.49-1.47-4.1-1.76-4.52a4.42,4.42,0,0,0-1.73-1.64,3.9,3.9,0,0,0-1.85-.37c-2.28,0-3.91,1-7.21,2-2.57.81-3.06.72-3.42.6-.66-.23-1.14-.7-3-4.13-1.93-3.6-2-4.17-1.87-4.69s.32-.95,3-3.34c1.26-1.11,4-3.45,4.79-5.23a2.6,2.6,0,0,0,.21-1.94,1.77,1.77,0,0,0-.27-.47c-1.16-1.61-2.2-3-3.06-4.09-2.44-3.14-3.68-4.48-5.07-4.41a6.22,6.22,0,0,0-1.25.25,6.58,6.58,0,0,0-2.13,1.12,38.42,38.42,0,0,1-4.73,3.2,6,6,0,0,1-2.79,1,5.41,5.41,0,0,1-3.14-1c-.15-.1-3.31-2.25-3.4-5.51-.08-3.05,2.54-6.51,3.69-9.32a2.16,2.16,0,0,0,.13-1.59,2.67,2.67,0,0,0-.61-.83,4.67,4.67,0,0,0-.84-.69c-1.41-.9-1.47-1.18-4-2.73a11.41,11.41,0,0,0-3.22-1.61,4.45,4.45,0,0,0-2.55.12,4.11,4.11,0,0,0-1.3.82A24.76,24.76,0,0,0-922.7,506a30.82,30.82,0,0,1-3.25,3.86,3.55,3.55,0,0,1-1,.58,3.18,3.18,0,0,1-1.3.18,10.89,10.89,0,0,1-5.8-2.07,5.06,5.06,0,0,1-1.17-1.23,5.16,5.16,0,0,1-.68-1.61,11.32,11.32,0,0,1,.07-4c.07-.75.07-2.36.07-5.58a2.82,2.82,0,0,0-.31-1.35,2.73,2.73,0,0,0-.77-.9,3,3,0,0,0-1.07-.52c-2.24-.62-4-.94-4-.94-2.33-.43-3.51-.88-5.18-.8a3.29,3.29,0,0,0-1.47.38,3.5,3.5,0,0,0-1.3,1.24,4.28,4.28,0,0,0-.48,1c-.45,2.09-.93,3.83-1.33,5.13-1.32,4.41-2,5.1-2.72,5.32-.12,0-1,.1-2.91.19l-3.25.14V494.43a.8.8,0,0,0,0-.57v-1.54a4.22,4.22,0,0,1,.12-.55,9.83,9.83,0,0,1,.94-3.24c2.18-5.42,6.05-7.22,12.2-5.81,6.53,1.5,11.64,5.29,16.2,10,1.49,1.52,2.89,3.13,4.38,4.66.95,1,2,2,3.49,1s1.22-2.3.52-3.69c-4.3-8.49-10.84-14.81-19-19.57-6.76-4-13.85-7-21.85-7.35-.93,0-1.54-.26-1.32-1.35.3-1.43-.49-1.72-1.68-1.7-1.92,0-3.84,0-5.76,0-1.46,0-3.28-.43-3.19,2.08,0,.24-.42.58-.71.75-5.76,3.37-11.84,5-18.48,3.14a23,23,0,0,0-8.16-1,3.23,3.23,0,0,0-3.23,3c-.65,3.71.18,7.36.26,11,0,.56.16,1.12.21,1.69.31,4.33.31,4.33,4.55,4.45.85,0,1.71.08,2.56.14a4.94,4.94,0,0,0,4.85-2.23,6.89,6.89,0,0,1,2.07-2c2.15-1.28,5-1,6.91-.67a15.59,15.59,0,0,1,6.05,2.77,7.71,7.71,0,0,1,1.59,1.62,6.22,6.22,0,0,1,1.12,2.52s0,.2.15,1.92h0V660a3.87,3.87,0,0,0,3.87,3.87h7.42a3.86,3.86,0,0,0,3.56-2.36,20.79,20.79,0,0,1,2.24-.47,6.88,6.88,0,0,1,4.1.35,3.32,3.32,0,0,1,.85.57,3.94,3.94,0,0,1,1,1.84,67,67,0,0,0,2.73,7.51,4.49,4.49,0,0,0,1.71,2.15,5.23,5.23,0,0,0,1.71.6,5.59,5.59,0,0,0,1.35.06c1.67-.1,3.07-.3,4.25-.46a22,22,0,0,0,3.11-.52,3.68,3.68,0,0,0,2-1,3.2,3.2,0,0,0,.64-1.85,18.87,18.87,0,0,0-.1-4.44c-.05-.55-.12-1.66-.26-3.88-.18-2.68-.17-3.05.09-3.54.48-.91,1.4-1.3,3.23-2,2.34-.94,3.67-1.47,5.07-1,.87.29,1.52,1.12,2.81,2.78,1.93,2.49,4.15,5.62,4.15,5.62a2.61,2.61,0,0,0,.88.83,2.9,2.9,0,0,0,1.59.34,3.66,3.66,0,0,0,1.62-.44,4.5,4.5,0,0,0,.39-.23c.5-.34,1.37-.9,2.9-1.85a42.07,42.07,0,0,0,4-3.11,3,3,0,0,0,.93-1.38,3.32,3.32,0,0,0,.07-1.3,6.84,6.84,0,0,0-.45-1.94c-1.25-3.13-2-4.68-2-4.68-1.49-3-1.57-3.07-1.55-3.48.08-1.17,1.23-2.19,3.52-4.18,2-1.77,3.08-2.65,4.08-2.65.77,0,1.88.84,4.07,2.51,1.38,1,2.83,2,4.23,3a3.85,3.85,0,0,0,2.15.93,3.23,3.23,0,0,0,2-.62l.32-.28.56-.51c1.34-1.23,4.55-4.76,6.33-6.84a2.26,2.26,0,0,0,.22-.32,2.5,2.5,0,0,0,0-1.89c-.58-1.81-4.28-4.89-6.42-6.73-1.12-1-1.78-1.53-2-2.51-.21-1.18.41-2.18,1.13-3.34.85-1.37,2-3.17,4-3.77.78-.23,1.87-.06,4.05.28.91.13,2.95.48,5.3.75a5.37,5.37,0,0,0,2.54-.35,2.38,2.38,0,0,0,1-.85,1.85,1.85,0,0,0,.22-.46c.18-.53.44-.9,1.66-3.43a28,28,0,0,0,2.05-5.14,3.21,3.21,0,0,0,.12-1.45,3.94,3.94,0,0,0-1.76-2.36,37.67,37.67,0,0,0-6.67-3.71c-1.77-.83-2.41-1.11-2.82-1.89-.12-.22-.48-1-.07-3.44s.61-3.63,1.45-4.56c1-1.12,2.5-1.35,5.5-1.81a55,55,0,0,0,6.07-1.29,2.77,2.77,0,0,0,1.33-.8,3.86,3.86,0,0,0,.72-1.39,7.23,7.23,0,0,0,.25-1A27.28,27.28,0,0,0-866.48,582ZM-975.09,470.22a29.59,29.59,0,0,1-13.79,4.28,43,43,0,0,1-9.87-1.14c-3-.59-4,.22-4.23,3.3a5.48,5.48,0,0,0-.07,1.27c.48,3.14-.58,6.16-.46,9.39-.31-.22-.52-.3-.52-.38-.14-4.59-.76-9.18-.2-13.78a1.74,1.74,0,0,1,1.89-1.62c.92,0,1.84.13,2.75.19,3.45.2,6.75,1.67,10.27,1.3a39,39,0,0,0,13.2-3.53c.57-.28,1.19-.85,2-.37C-974.23,469.71-974.67,470-975.09,470.22Zm9.6,177.22c-2.26-.26-4.54,0-6.81-.1-.46,0-1.34.7-1.29-.93,0-1.12.76-.77,1.23-.77,1.92,0,3.83.05,5.75,0,.93,0,2.15.92,2.2-2.32s-1.11-2.41-2.08-2.45-2.13,0-3.19,0c-.28,0-.61,0-.67-.6-.07-.83.28-1,.66-1a33.61,33.61,0,0,1,3.62,0c1.11.11,1.65-.27,1.64-2.54s-.54-2.52-1.64-2.53c-1.44,0-2.95.61-4.85-.84,2-1.07,3.44-.66,4.87-.62,1.15,0,1.62-.33,1.62-2.57s-.55-2.51-1.64-2.53c-1.44,0-2.95.6-4.32-1a13.75,13.75,0,0,1,4.79-.48c.78,0,1.13-.3,1.16-1.8,0-2.09,0-3.47-1.66-3.27-1.42.17-2.94.58-4.29-.78,1.52-1.14,3.06-.69,4.58-.71,1,0,1.42-.37,1.36-2.23-.06-2.15.07-3.67-3.16-2.17a4.85,4.85,0,0,1-4.45-.48c-.52-.29-1.39.64-1.68-1.74,2.64,0,5.15-.06,7.66,0,1.06,0,1.65-.08,1.66-2.45,0-2.59-.79-2.34-1.74-2.3s-2.13,0-3.2,0c-.4,0-.94.17-1-.85-.07-1.55.72-.91,1.13-1a5,5,0,0,1,2.43-.18c1.79.49,2.35.28,2.37-2.21,0-2.19-.53-2.39-1.53-2.3-1.2.1-2.41,0-3.62,0-.36,0-.74,0-.79-.84-.06-1.11.43-1,.85-1.06,1.14,0,2.27-.07,3.41,0s1.68,0,1.68-2.39c0-2.64-.87-2.23-1.78-2.22-1.14,0-2.27,0-3.41,0-.35,0-.75,0-.76-.84s.31-1,.71-1a33.63,33.63,0,0,1,3.62,0c1.11.12,1.63-.21,1.62-2.51s-.65-2.26-1.58-2.21c-1.21.07-2.42,0-3.62,0-.35,0-.76.05-.75-.84s.37-.92.74-.92a24.43,24.43,0,0,1,3.63,0c1.2.18,1.57-.5,1.58-2.62s-.64-2.26-1.59-2.24c-2.55,0-5.1,0-8.16,0,1.08-2.24,1.7-1.35,2.34-1.66a4.49,4.49,0,0,1,2.89-.47c3.49.73,4.49,1.39,4.52-2,0-2.36-.61-2.47-1.68-2.47-1.43,0-2.93.49-4.29-1a9,9,0,0,1,4.16-.54c1.13.1,1.8,0,1.81-2.6,0-2.84-.9-2.36-1.89-2.47-1.36-.14-2.81.57-4.65-.95a10.07,10.07,0,0,1,5.17-.5c1.23.07,1.32-.88,1.35-2.63,0-2-.35-2.59-1.46-2.43a20.43,20.43,0,0,1-3.41.07c-.39,0-1,.25-1-.74-.06-1.33.65-1,1.07-1a15.78,15.78,0,0,1,3.15.06c1.18.22,1.71-.13,1.7-2.46s-.5-2.67-1.65-2.43c-1.46.31-3,.92-4.61-1,1.78-1.23,3.32-.79,4.82-.61,1.14.13,1.41-.54,1.43-2.45,0-2.1-.46-2.38-1.51-2.32-2.19.13-4.39,0-6.58,0-.46,0-1.13.23-1-1.09.06-1,.65-.69,1-.72,2.32-.13,4.64.25,6.94-.57.61-.22,1.28.33,1.16-1.61s-.32-2.82-2.12-2.19a3.93,3.93,0,0,1-2.69-.24c-.35-.14-1.08.27-1.13-1s.61-.89,1-1A7.13,7.13,0,0,1-966,541c1.53.4,1.34-1.27,1.49-2.66.22-1.93-.51-1.88-1.26-1.85-1.14,0-2.28.06-3.41,0-.43,0-1.13.53-1.18-.78s.63-1,1.09-1c1,0,2,0,3,0s1.88.22,1.86-2.53-.85-2.28-1.77-2.26c-1.13,0-2.27,0-3.41,0-.33,0-.75.11-.77-.78s.34-.94.72-.94a24.29,24.29,0,0,1,3.62,0c1.19.17,1.59-.45,1.6-2.58s-.54-2.32-1.54-2.35c-1.47,0-3,.54-4.43-.81,1.38-1.06,2.82-.68,4.23-.7,1,0,1.73.14,1.74-2.37s-.56-2.78-1.75-2.7c-2.13.14-4.27.06-6.4,0-.42,0-1,.38-1.1-1.54,2.54,0,5.06-.14,7.58.06,1.37.12,1.69-.69,1.65-2.9a23.78,23.78,0,0,1,.39-7.11,11.67,11.67,0,0,1,.48,4.52q0,34.12,0,68.23c0,22,0,44,0,66.06C-963.51,646.83-963.89,647.63-965.49,647.44Zm1.7-177.79c11.74-1.21,35.58,13.82,38.63,24.45C-934.88,481-948.08,473.31-963.79,469.65Zm10.9,115.15c-2.12,2.63-4.81,2.91-7.63,1.57V576.05a5.68,5.68,0,0,0,3.52-.41l3.15,1C-951.8,579.14-950.58,581.93-952.89,584.8Zm41.71,38a60.8,60.8,0,0,1-21.74,17.76,75.47,75.47,0,0,1-17.62,5.3,55.31,55.31,0,0,1-8.52.78c-.38,0-.77,0-1.16,0a.75.75,0,0,0-.3,0V614.23l.33-.32c4.94.18,9.89.17,14.83.37,1.8.07,3.17-.43,3.23-2.41.06-2.21-1.41-2.79-3.38-2.75-5,.09-10,0-14.93.11l-.08-.09v-2.6c.89.24,1.62,1.24,2.66.75,4.22,0,8.44,0,12.66,0,1.75,0,3.07-.73,3.19-2.63s-1.29-2.79-3-2.84c-4.48-.15-9-.8-13.41,1.08l-2.14-1.39V598c3.58,0,7.17.12,10.75.13,7.46,0,7.46,0,9.9-6.91,1.35-2.32,2.71-4.63,4.06-6.94,1.34-2.59,3.37-4.81,4.11-7.72.38-.89,1.22-1.6,1-2.71h0c.92-.54,1-1.48,1.11-2.39,3.54,1,3.12,4.06,3.45,6.72a1.09,1.09,0,0,1,.83,1,1.09,1.09,0,0,0-.83-1c-1.33,2.75-2.85,5.3-6,6.29l-3.68-.19c-1.35,2.31-2.71,4.62-4.06,6.94,1.69,0,3.38,0,5.06-.14,6.74-.56,11.18-4.94,11.87-11.61l-1.64-.6c-1,1.45-1.67,3.12-2.59,4.61.71-1.15,1.28-2.39,1.95-3.56l2.31-.77a7.9,7.9,0,0,0-1-4.89c-3.57-7.28-9.68-11.9-16.42-15.89-1.79-1.06-3.23-.13-4.79.43a8.06,8.06,0,0,1-5.25-2c-2-5.9-.17-8.6,6.15-8.83l1.71-.55-1.71.55,2,1.08,1.46,2.27a2.38,2.38,0,0,0,1.44,2.29c5.8,2.8,10.65,6.88,15.19,11.39.15.15.7-.1,1.74-.29l-9.07-9.6a2.07,2.07,0,0,0-.48-2.68c-3.91-8.24-10.81-12-19.51-12.7-3-.26-6.08.07-9-.7V520.53c.08,0,.45-.08.45-.06h0a64.31,64.31,0,0,1,31.59,9.07,64.53,64.53,0,0,1,30.82,53.68C-897.41,604-907.81,618.51-911.18,622.84Zm-32.18-56.5a12.34,12.34,0,0,1,6.85,1.58h0A12.34,12.34,0,0,0-943.36,566.34Z" transform="translate(1084.95 -373.22)"/><path class="cls-2" d="M-951.87,616.08a8.83,8.83,0,0,0-2.5.1c1.49,1.27,2.11,3,2.83,4.75-.72-1.71-1.34-3.48-2.83-4.75l-3.45,0c-2.1-.56-2,.86-1.91,2.2.27,4.34,4.3,6.74,8.79,5.27l.39,0,.35-.2c2.71-1.11,4-3.39,3.39-6S-950.13,616.49-951.87,616.08Z" transform="translate(1084.95 -373.22)"/><path class="cls-2" d="M-945.75,550.49a2.7,2.7,0,0,0-3.07,2.81c0,1.64,1.11,2.57,2.68,2.78,1.87.26,2.92-.72,3.29-2.61A2.91,2.91,0,0,0-945.75,550.49Z" transform="translate(1084.95 -373.22)"/><path class="cls-2" d="M-957.13,578.44a2.53,2.53,0,0,0-2.56,2.87c0,1.85.68,3.1,2.73,3a2.56,2.56,0,0,0,2.61-2.78C-954.3,579.52-955.46,578.71-957.13,578.44Z" transform="translate(1084.95 -373.22)"/><path class="cls-2" d="M-790.88,507.37a8.7,8.7,0,0,0,.8-2.15l.93-2.22a3.91,3.91,0,0,0,.51-1.12l.83-1.23c1.71-2.19,4.13-3.19,6.7-3.91.78-.22,1.56-.4,2.34-.6a.94.94,0,0,0,.67-.16h0a1.26,1.26,0,0,0,.85-.18h0l.86,0-.32.47-.63.75-.21.37a1,1,0,0,0-.54.65l-.13.18-.14.19h0l-.11.15a8,8,0,0,0-.42,5.45,2.93,2.93,0,0,0,.7,1.5,3.84,3.84,0,0,0,3.35,1.85,18,18,0,0,1,3,.19c1.4.13,2.8.38,2.8.38h0s-.84,2.76-1.2,4.44a1.26,1.26,0,0,1-.41.77,1.43,1.43,0,0,1-.89.25,63.85,63.85,0,0,0-31.41,9.57,66.56,66.56,0,0,0-30.76,41.33,65.17,65.17,0,0,0-1.94,22.12,66.93,66.93,0,0,0,14,36.14,67.69,67.69,0,0,0,29.13,21.83,63.45,63.45,0,0,0,17.3,4.2,55.4,55.4,0,0,0,6.93.29c.84,0,1.3.21,1.48,1.07a16.66,16.66,0,0,0,.62,1.93,11.2,11.2,0,0,0,.71,2.19l.06.34.13.32.13.48h0l-3.88-.36c-.34,0-1-.21-1,0,.1.9-.67,1.14-1,1.66a25,25,0,0,0-2.79,3.37l-.12.15a14.62,14.62,0,0,1-2.71,3.21,10.21,10.21,0,0,1-3.39,1.78,6.68,6.68,0,0,1-2,.16c-2.28.07-4.57.12-6.84.17-.18-.39.15-.49.31-.63a13.19,13.19,0,0,0,2.89-2.84,6.41,6.41,0,0,0,.91-4.9,5,5,0,0,0-1.34-2.46c-.91-1-2.22-1.44-4.21-.65a8.73,8.73,0,0,0-.8.42.85.85,0,0,0-.51.34l-.68.52a3.32,3.32,0,0,0-1.09,1c-.52.44-1,.87-1.57,1.32a10.86,10.86,0,0,1-4,2.17,7.41,7.41,0,0,1-3.17.45,26.6,26.6,0,0,1-5-1.16l-2.89-1,.82-.5a.11.11,0,0,0,.11-.1l.22-.07.16-.1.17,0a4.51,4.51,0,0,0,1.54-.83c.13,0,.28,0,.32-.18a4.32,4.32,0,0,0,1.2-1.21,5.65,5.65,0,0,0,1-6.53,3.89,3.89,0,0,0-4.24-1.73,17,17,0,0,0-3.22,1.31,14.31,14.31,0,0,1-6.55,1.83,12.19,12.19,0,0,1-5.35-1.52,28.32,28.32,0,0,1-5-3.28c1.06-.17,2.16.09,3.19-.31l.34,0a.32.32,0,0,0,.36-.13,2.28,2.28,0,0,0,1.32-.59c.11,0,.15,0,.16-.13a6.14,6.14,0,0,0,2.92-4.22c.44-2.29-.77-4.09-3.39-4.67-1.38-.3-2.62.18-3.92.37-2.1.31-4.16,1-6.33.14-.66-.27-1.45-.3-2.13-.64s-1.33-.85-2-1.28l-.62-.55a5.29,5.29,0,0,0-1-.92,23.8,23.8,0,0,1-3.64-4.06l.13-.12.35.13.17.07.18,0a2.46,2.46,0,0,0,1,.27,6.41,6.41,0,0,0,7.08-2.89,1.42,1.42,0,0,0,.31-.76c.27-.3.25-.71.4-1.06.27-1-.22-1.8-.39-2.69a1.24,1.24,0,0,0-.64-.67h0l-.17-.14,0,0-.13-.11-.18-.06-.16-.07a5.94,5.94,0,0,0-3-.9,53.36,53.36,0,0,1-5.64-.73,11.14,11.14,0,0,1-2.37-1.08,2.17,2.17,0,0,0-1-.67c-2.22-1.75-3.4-4.23-4.63-6.67l-.12-.18h0a4.07,4.07,0,0,0-.71-1.35l-.22-.57h.19a10.21,10.21,0,0,0,3.55,1.58c2.44.34,4.64-.07,6.31-2.07a2.15,2.15,0,0,0,.78-1.07,3.43,3.43,0,0,0,0-3.06c0-.18,0-.39-.19-.5a6.81,6.81,0,0,0-2.68-2c-1.8-.7-3.64-1.29-5.4-2.1-.23-.11-.35-.33-.58-.42a13.71,13.71,0,0,0-2-1.51,10.43,10.43,0,0,1-1.47-2.14l-.66-1.37c-.88-2.31-1.17-4.77-1.92-7.31,1.57,1.4,3,2.8,5,3a.52.52,0,0,0,.51.09,11.94,11.94,0,0,0,2.39,0c.19,0,.38.07.51-.14.61-.32,1.2-.64,1.81-.95,1.2-.61,2.17-3.42,1.15-4.84-.4-.56-1.11-.85-1.3-1.56a3.21,3.21,0,0,0-1.37-1.13,38.28,38.28,0,0,1-3.77-2.67,4.53,4.53,0,0,0-1.42-1.5,24.6,24.6,0,0,1-1.51-3.76,21.9,21.9,0,0,1-.18-6.61c0-.54,0-1.07,0-1.6,0-.1,0-.24.12-.28a.26.26,0,0,1,.32.19,6.49,6.49,0,0,0,2.74,3.15,4.7,4.7,0,0,0,2,1,2.9,2.9,0,0,0,1.34.09l1.2,0A1.18,1.18,0,0,0-847,568a3.6,3.6,0,0,0,2.85-2.11l.09-.16.06-.35a2.82,2.82,0,0,0,0-2,7.1,7.1,0,0,0-2-3.33,14.43,14.43,0,0,1-2.92-3.8,9.66,9.66,0,0,1-1.2-6.29,58.81,58.81,0,0,1,1.87-7c.35.22.41.57.6.83a7.45,7.45,0,0,0,.78,1.7c.11.6.7.84,1,1.31a.69.69,0,0,0,.43.37h0a6.53,6.53,0,0,0,1.78,1.4A7.14,7.14,0,0,0-840,549a.56.56,0,0,0,.48-.14l.2,0a.3.3,0,0,0,.32-.14l.18-.08.16-.1c.44-.25.91-.47,1.07-1a1.19,1.19,0,0,0,.39-.63l.05-.21a.16.16,0,0,0,.11-.21,3.07,3.07,0,0,0-.23-2.81,2.24,2.24,0,0,1-.2-.88,15.14,15.14,0,0,0-1.32-2.64,15.92,15.92,0,0,1-1.36-5,10.72,10.72,0,0,1,1.47-5.95,21.39,21.39,0,0,0,1.69-2.89l.13-.2,0,0,.1-.13a7.75,7.75,0,0,1,1.4-1.77,11.35,11.35,0,0,0,.21,2.25,5.77,5.77,0,0,0,3.27,5.21c.48.28,1,.52,1.48.78l.16.07.35,0h1l.52,0a.61.61,0,0,0,.49-.11l.35-.06.18-.11c1.33-.46,1.78-1.6,2.12-2.8a8.24,8.24,0,0,0-.28-3.85c-.64-3.52-1-7,1.24-10.19a30.47,30.47,0,0,1,2.88-3.11c.38-.4.61-.93,1.14-1.18l1.16-1.18.2-.14a.07.07,0,0,0,.11,0c.22,0,.71-.34.48.31a8.68,8.68,0,0,0-.09,5.8c0,.31.05.62.33.82a7.34,7.34,0,0,0,2.25,2,2.18,2.18,0,0,0,.84.53c1.18.84,2.31.44,3.42-.16a1.26,1.26,0,0,0,.66-.5h0a.86.86,0,0,0,.47-.52,9,9,0,0,0,1.27-4.36,21.46,21.46,0,0,1,.25-3.54,10.33,10.33,0,0,1,4.47-6.79,41.23,41.23,0,0,1,5.77-3.22,1.19,1.19,0,0,1,.62-.05,6.37,6.37,0,0,0-1.65,3.66.49.49,0,0,0-.11.45l0,.51a6.67,6.67,0,0,0,1.27,4.23l.16.16.18.18c.14.34.5.42.75.63a2.44,2.44,0,0,0,1,.8l.54.35c0,.08,0,.14.14.1a1.16,1.16,0,0,0,.69,0,.62.62,0,0,0,.51-.12,4.67,4.67,0,0,0,3.47-3Z" transform="translate(1084.95 -373.22)"/><path class="cls-2" d="M-814.56,600.87a42,42,0,0,0,3.14,6.07.08.08,0,0,0,.08.11v0l.16.32,1.86,2.73a3.24,3.24,0,0,0,.76,1,4.47,4.47,0,0,0,.87,1.15l.64.78a34.64,34.64,0,0,0,4.45,4.69l1.2,1a20.18,20.18,0,0,0,3.29,2.61,6.81,6.81,0,0,0,1.39,1c2.12,1.25,4.07,2.73,6.59,3.46a8.2,8.2,0,0,1,2.78,1.48,4.29,4.29,0,0,0,1.35.54l.3.11.69.22a1.35,1.35,0,0,0,.69.25l.24,0s0,.07.08.06a29.72,29.72,0,0,0,5.33,1.34,4.21,4.21,0,0,0,1.35.27l.35,0a5,5,0,0,0,1.53.25,50.85,50.85,0,0,0,11,.29c.37,0,.83-.15.82.49v.17l0,.34c.28,5.14.14,5.43.14,5.43,0,4.43.18,9,.18,9h0s-2.76.06-4.29.07a50.46,50.46,0,0,1-5.93-.14,64.08,64.08,0,0,1-35.23-14.17,64.7,64.7,0,0,1-22-32.56,61.88,61.88,0,0,1-2.51-21.89c1.25-18.22,8.79-33.41,22.45-45.52a64.7,64.7,0,0,1,31.59-15.18,31.58,31.58,0,0,1,8.18-.76c1.17.06,4.59.34,4.59.34h0l0,1.25s.26,10.65.27,10.86a8.7,8.7,0,0,0,0,2v.86l0,0-.51,0c-1.8,0-3.61-.07-5.4.07a47.89,47.89,0,0,0-6.44.85,51.35,51.35,0,0,0-9.88,3.06c-1.35.59-2.62,1.31-4,1.9a1.87,1.87,0,0,0-1,.52h0a1.17,1.17,0,0,0-.65.36h0l-.21.14a55.84,55.84,0,0,0-8.47,6.37,3.53,3.53,0,0,0-1.35,1.36c-1.25,1.13-2.27,2.47-3.43,3.69-.21.22-.39.47-.58.71s-.44.33-.42.65l-.17.2a3,3,0,0,0-1,1.35,55.43,55.43,0,0,0-3.22,5.46c-.73,1.53-1.57,3-2.19,4.6a51.46,51.46,0,0,0-2.63,8.66,44.73,44.73,0,0,0-.85,6.43,50.14,50.14,0,0,0,.74,12.58c.57,2.91,1.49,5.69,2.33,8.51.11.41.62.63.55,1.13Z" transform="translate(1084.95 -373.22)"/><path class="cls-2" d="M-797.77,594.51l.12.25c.06,0,.2.13.2-.07l-.2.07c.13-.15.06-.21-.1-.22v0Z" transform="translate(1084.95 -373.22)"/></svg>