<svg xmlns="http://www.w3.org/2000/svg" width="41" height="41" viewBox="0 0 41 41">
  <g id="seta-mob" transform="translate(-1186 -2303)">
    <circle id="seta-mob-2" data-name="seta-mob" cx="20.5" cy="20.5" r="20.5" transform="translate(1186 2303)" fill="#fff"/>
    <path id="_581e0110b683da824149a2354ae2354e" data-name="581e0110b683da824149a2354ae2354e" d="M.291,15.667a.844.844,0,0,0,1.164,0L8.262,9.1a1.55,1.55,0,0,0,0-2.247L1.405.232A.845.845,0,0,0,.25.224.776.776,0,0,0,.241,1.357L6.516,7.412a.775.775,0,0,1,0,1.124L.291,14.544a.774.774,0,0,0,0,1.123" transform="translate(1202 2316)" fill="#202021" fill-rule="evenodd"/>
  </g>
</svg>
